<?xml version="1.0" standalone="no"?> <!DOCTYPE svg PUBLIC "-//W3C//DTD SVG 20010904//EN" "http://www.w3.org/TR/2001/REC-SVG-20010904/DTD/svg10.dtd"> <svg version="1.0" xmlns="http://www.w3.org/2000/svg" width="600.000000pt" height="600.000000pt" viewBox="0 0 600.000000 600.000000" preserveAspectRatio="xMidYMid meet"> <g transform="translate(0.000000,600.000000) scale(0.100000,-0.100000)" fill="#06a8f9" stroke="none"> <path d="M2810 4773 c-1024 -104 -1719 -998 -1569 -2018 181 -1227 1617 -1862 2664 -1177 717 469 1010 1275 734 2019 -28 77 -29 84 -15 105 79 112 -89 238 -174 131 -40 -51 -8 -173 45 -173 17 0 70 -145 103 -285 35 -145 39 -493 8 -635 -57 -263 -187 -534 -340 -705 l-35 -40 -1 773 c0 507 -3 772 -10 773 -5 1 -17 2 -25 2 -8 0 -73 -1 -145 -2 l-130 -1 0 -897 0 -898 -98 -58 -97 -58 -3 706 -2 706 -158 -3 -157 -3 -3 -761 -2 -761 -88 -16 c-48 -10 -99 -17 -114 -17 l-28 0 0 820 0 821 -157 -3 -158 -3 -2 -820 c-2 -662 -5 -820 -15 -820 -7 0 -48 4 -90 8 l-78 9 -2 631 -3 632 -150 -4 c-95 -2 -153 -8 -158 -15 -4 -6 -6 -266 -5 -579 2 -312 1 -567 -1 -567 -28 0 -298 170 -380 239 l-35 28 147 144 147 144 0 250 0 250 233 233 c171 170 238 232 256 232 38 0 91 61 91 104 0 126 -150 168 -209 59 -13 -26 -14 -82 -1 -103 7 -12 -39 -64 -215 -240 -133 -134 -226 -235 -229 -250 -3 -14 -7 -132 -8 -262 l-3 -238 -135 -135 -134 -135 -34 33 c-130 125 -278 359 -347 547 -98 273 -114 643 -40 935 124 489 488 891 970 1070 357 133 805 119 1156 -35 52 -23 106 -47 120 -53 23 -9 39 -5 114 29 129 58 129 60 -52 149 -291 144 -665 218 -953 188z"/> <path d="M4215 4474 c-110 -52 -243 -114 -295 -136 -155 -67 -157 -75 -48 -150 l59 -39 -33 -38 c-18 -21 -134 -150 -258 -287 -124 -136 -239 -263 -256 -283 -38 -43 1 -69 -339 223 -307 262 -320 271 -373 261 -51 -9 -996 -947 -1013 -1006 -29 -93 58 -183 159 -164 32 6 90 59 453 422 l417 415 314 -269 c173 -149 324 -275 335 -282 63 -33 87 -16 313 230 111 120 206 224 213 231 7 7 75 83 151 168 77 85 147 163 156 173 17 18 19 17 71 -22 117 -88 143 -89 154 -3 4 26 24 163 46 305 45 299 47 322 20 337 -31 16 -36 15 -246 -86z"/> <path d="M1984 2730 c-60 -24 -74 -121 -25 -171 50 -50 135 -38 167 23 51 98 -38 190 -142 148z"/> </g> </svg>